<?xml version="1.0" encoding="iso-8859-1"?>
<!-- Generator: Adobe Illustrator 19.0.0, SVG Export Plug-In . SVG Version: 6.00 Build 0)  -->
<svg version="1.1" id="Capa_1" xmlns="http://www.w3.org/2000/svg" xmlns:xlink="http://www.w3.org/1999/xlink" x="0px" y="0px"
	 viewBox="0 0 512.004 512.004" style="enable-background:new 0 0 512.004 512.004;" xml:space="preserve">
<g>
	<polygon style="fill:#D8B62C;" points="418.135,142.723 418.135,213.337 418.135,284.453 308.55,375.769 503.468,503.47 
		503.468,213.337 	"/>
	<polygon style="fill:#D8B62C;" points="93.868,213.337 93.868,142.723 8.535,213.337 8.535,503.47 203.453,375.769 93.868,284.453 
			"/>
</g>
<g>
	<polygon style="fill:#F7E6A1;" points="418.135,213.337 503.468,213.337 418.135,142.723 	"/>
	<polygon style="fill:#F7E6A1;" points="93.868,142.723 8.535,213.337 93.868,213.337 	"/>
	<polygon style="fill:#F7E6A1;" points="315.735,59.737 256.002,8.537 196.268,59.737 	"/>
</g>
<g>
	<polyline style="fill:#D8B62C;" points="93.868,213.337 8.535,213.337 8.535,503.47 503.468,503.47 503.468,213.337 
		418.135,213.337 	"/>
	<polygon style="fill:#D8B62C;" points="418.135,213.337 418.135,284.453 308.55,375.769 503.468,503.47 503.468,213.337 	"/>
	<polygon style="fill:#D8B62C;" points="93.868,284.453 93.868,213.337 8.535,213.337 8.535,503.47 203.453,375.769 	"/>
</g>
<path style="fill:#E7ECED;" d="M322.886,59.737H93.868v224.708l109.585,91.315l28.348-18.577c14.694-9.626,33.707-9.626,48.401,0
	l28.348,18.577l109.585-91.307V59.737H322.886z"/>
<g>
	<polygon style="fill:#F7E6A1;" points="308.55,375.769 503.468,503.47 503.468,213.337 	"/>
	<polygon style="fill:#F7E6A1;" points="8.535,213.337 8.535,503.47 203.453,375.769 	"/>
</g>
<circle style="fill:#25AE88;" cx="401.068" cy="93.87" r="85.333"/>
<g>
	<path style="fill:#4D007E;" d="M503.468,512.003H8.535c-4.71,0-8.533-3.814-8.533-8.533V213.337c0-4.719,3.823-8.533,8.533-8.533
		h85.333v17.067h-76.8v273.067h477.867V221.87h-76.8v-17.067h85.333c4.71,0,8.533,3.814,8.533,8.533V503.47
		C512.002,508.189,508.179,512.003,503.468,512.003z"/>
	<path style="fill:#4D007E;" d="M503.468,512.003c-1.63,0-3.26-0.469-4.676-1.391L303.874,382.92
		c-2.261-1.485-3.686-3.951-3.84-6.647c-0.154-2.697,0.981-5.316,3.055-7.049l194.918-162.441c2.543-2.116,6.084-2.577,9.079-1.169
		c3.004,1.399,4.915,4.42,4.915,7.723V503.47c0,3.132-1.715,6.016-4.48,7.509C506.259,511.662,504.859,512.003,503.468,512.003z
		 M322.869,374.949l172.066,112.734V231.555L322.869,374.949z"/>
	<path style="fill:#4D007E;" d="M8.535,512.003c-1.391,0-2.79-0.341-4.053-1.024c-2.756-1.485-4.48-4.369-4.48-7.509V213.337
		c0-3.311,1.911-6.323,4.915-7.723c2.995-1.408,6.537-0.947,9.079,1.169l194.918,162.432c2.074,1.732,3.209,4.352,3.055,7.049
		c-0.154,2.697-1.579,5.163-3.84,6.647L13.211,510.612C11.795,511.542,10.165,512.003,8.535,512.003z M17.068,231.555v256.128
		l172.066-112.734L17.068,231.555z"/>
	<path style="fill:#4D007E;" d="M503.468,512.003c-1.63,0-3.26-0.469-4.676-1.391L303.874,382.92
		c-2.261-1.485-3.686-3.951-3.84-6.647c-0.154-2.697,0.981-5.316,3.055-7.049l106.513-88.772v-67.115
		c0-4.719,3.823-8.533,8.533-8.533h85.333c4.71,0,8.533,3.814,8.533,8.533V503.47c0,3.132-1.715,6.016-4.48,7.509
		C506.259,511.662,504.859,512.003,503.468,512.003z M322.869,374.949l172.066,112.734V221.87h-68.267v62.575
		c0,2.534-1.126,4.932-3.072,6.562L322.869,374.949z M418.135,284.445h0.085H418.135z"/>
	<path style="fill:#4D007E;" d="M8.535,512.003c-1.391,0-2.79-0.341-4.053-1.024c-2.756-1.485-4.48-4.369-4.48-7.509V213.337
		c0-4.719,3.823-8.533,8.533-8.533h85.333c4.71,0,8.533,3.814,8.533,8.533v67.106l106.513,88.764
		c2.074,1.732,3.209,4.352,3.055,7.049c-0.154,2.697-1.579,5.163-3.84,6.647L13.211,510.612
		C11.795,511.542,10.165,512.003,8.535,512.003z M17.068,221.87v265.813l172.066-112.734L88.407,291.007
		c-1.946-1.621-3.072-4.028-3.072-6.562V221.87H17.068z"/>
	<path style="fill:#4D007E;" d="M93.868,221.87H8.535c-3.601,0-6.81-2.261-8.03-5.641c-1.22-3.379-0.179-7.177,2.586-9.463
		l85.333-70.613c2.551-2.108,6.076-2.551,9.071-1.152c2.995,1.408,4.907,4.412,4.907,7.723v70.613
		C102.402,218.056,98.579,221.87,93.868,221.87z M32.232,204.803h53.103v-43.938L32.232,204.803z"/>
	<path style="fill:#4D007E;" d="M317.868,68.27H194.135c-3.601,0-6.81-2.261-8.03-5.641c-1.22-3.379-0.179-7.177,2.586-9.463
		l61.867-51.2c3.157-2.62,7.723-2.62,10.88,0l61.867,51.2c2.773,2.295,3.806,6.084,2.586,9.463S321.469,68.27,317.868,68.27z
		 M217.832,51.203h76.339l-38.17-31.59L217.832,51.203z"/>
	<path style="fill:#4D007E;" d="M503.468,221.87h-85.333c-4.71,0-8.533-3.814-8.533-8.533v-35.849c0-4.062,2.859-7.561,6.844-8.363
		c8.883-1.792,17.425-5.248,25.395-10.257c3.123-1.954,7.142-1.698,9.984,0.649l57.088,47.249c2.773,2.295,3.806,6.084,2.586,9.463
		C510.278,219.609,507.069,221.87,503.468,221.87z M426.668,204.803h53.103l-34.244-28.339c-6.05,3.294-12.365,5.871-18.859,7.723
		V204.803z"/>
	<path style="fill:#4D007E;" d="M401.068,187.737c-51.755,0-93.867-42.112-93.867-93.867s42.112-93.867,93.867-93.867
		s93.867,42.112,93.867,93.867S452.831,187.737,401.068,187.737z M401.068,17.07c-42.351,0-76.8,34.449-76.8,76.8
		s34.449,76.8,76.8,76.8s76.8-34.449,76.8-76.8S443.419,17.07,401.068,17.07z"/>
	<path style="fill:#4D007E;" d="M392.535,128.003c-2.261,0-4.429-0.887-6.033-2.5l-25.6-25.6c-3.337-3.337-3.337-8.73,0-12.066
		c3.328-3.337,8.738-3.337,12.066,0l18.995,18.995l36.685-44.023c3.021-3.627,8.397-4.096,12.015-1.092
		c3.618,3.021,4.113,8.397,1.092,12.023l-42.667,51.2c-1.536,1.843-3.772,2.953-6.17,3.055
		C392.791,128.003,392.663,128.003,392.535,128.003z"/>
	<path style="fill:#4D007E;" d="M324.268,221.87h-59.733c-4.71,0-8.533-3.814-8.533-8.533c0-4.719,3.823-8.533,8.533-8.533h59.733
		c4.71,0,8.533,3.814,8.533,8.533C332.802,218.056,328.979,221.87,324.268,221.87z"/>
	<path style="fill:#4D007E;" d="M230.402,221.87h-93.867c-4.71,0-8.533-3.814-8.533-8.533c0-4.719,3.823-8.533,8.533-8.533h93.867
		c4.71,0,8.533,3.814,8.533,8.533C238.935,218.056,235.112,221.87,230.402,221.87z"/>
	<path style="fill:#4D007E;" d="M349.868,307.203h-59.733c-4.71,0-8.533-3.814-8.533-8.533c0-4.719,3.823-8.533,8.533-8.533h59.733
		c4.71,0,8.533,3.814,8.533,8.533C358.402,303.389,354.579,307.203,349.868,307.203z"/>
	<path style="fill:#4D007E;" d="M256.002,307.203h-93.867c-4.71,0-8.533-3.814-8.533-8.533c0-4.719,3.823-8.533,8.533-8.533h93.867
		c4.71,0,8.533,3.814,8.533,8.533C264.535,303.389,260.712,307.203,256.002,307.203z"/>
	<path style="fill:#4D007E;" d="M375.468,221.87h-17.067c-4.71,0-8.533-3.814-8.533-8.533c0-4.719,3.823-8.533,8.533-8.533h17.067
		c4.71,0,8.533,3.814,8.533,8.533C384.002,218.056,380.179,221.87,375.468,221.87z"/>
	<path style="fill:#4D007E;" d="M247.468,264.537h-59.733c-4.71,0-8.533-3.814-8.533-8.533s3.823-8.533,8.533-8.533h59.733
		c4.71,0,8.533,3.814,8.533,8.533S252.179,264.537,247.468,264.537z"/>
	<path style="fill:#4D007E;" d="M375.468,264.537h-93.867c-4.71,0-8.533-3.814-8.533-8.533s3.823-8.533,8.533-8.533h93.867
		c4.71,0,8.533,3.814,8.533,8.533S380.179,264.537,375.468,264.537z"/>
	<path style="fill:#4D007E;" d="M187.735,179.203h-59.733c-4.71,0-8.533-3.814-8.533-8.533s3.823-8.533,8.533-8.533h59.733
		c4.71,0,8.533,3.814,8.533,8.533S192.445,179.203,187.735,179.203z"/>
	<path style="fill:#4D007E;" d="M315.735,179.203h-93.867c-4.71,0-8.533-3.814-8.533-8.533s3.823-8.533,8.533-8.533h93.867
		c4.71,0,8.533,3.814,8.533,8.533S320.445,179.203,315.735,179.203z"/>
	<path style="fill:#4D007E;" d="M153.602,264.537h-17.067c-4.71,0-8.533-3.814-8.533-8.533s3.823-8.533,8.533-8.533h17.067
		c4.71,0,8.533,3.814,8.533,8.533S158.312,264.537,153.602,264.537z"/>
	<path style="fill:#4D007E;" d="M290.135,136.537h-102.4c-4.71,0-8.533-3.814-8.533-8.533c0-4.719,3.823-8.533,8.533-8.533h102.4
		c4.71,0,8.533,3.814,8.533,8.533C298.668,132.722,294.845,136.537,290.135,136.537z"/>
	<path style="fill:#4D007E;" d="M153.602,136.537h-17.067c-4.71,0-8.533-3.814-8.533-8.533c0-4.719,3.823-8.533,8.533-8.533h17.067
		c4.71,0,8.533,3.814,8.533,8.533C162.135,132.722,158.312,136.537,153.602,136.537z"/>
	<path style="fill:#4D007E;" d="M308.55,384.31c-1.621,0-3.251-0.461-4.676-1.391l-28.348-18.577
		c-11.861-7.782-27.187-7.774-39.04-0.009L208.13,382.92c-3.14,2.057-7.262,1.818-10.138-0.58L88.407,291.007
		c-1.946-1.621-3.072-4.028-3.072-6.562V59.737c0-4.719,3.823-8.533,8.533-8.533h229.018c2.876,0,5.564,1.451,7.142,3.866
		c1.579,2.406,1.835,5.453,0.674,8.081c-4.267,9.771-6.434,20.105-6.434,30.72c0,42.351,34.449,76.8,76.8,76.8
		c5.163,0,10.334-0.521,15.36-1.545c2.5-0.512,5.12,0.128,7.1,1.749c1.988,1.621,3.14,4.062,3.14,6.613v106.957
		c0,2.534-1.126,4.932-3.072,6.562l-109.585,91.324C312.441,383.645,310.504,384.31,308.55,384.31z M256.002,341.439
		c10.052,0,20.105,2.876,28.877,8.627l23.066,15.113l101.658-84.727v-93.09c-2.833,0.247-5.683,0.375-8.533,0.375
		c-51.755,0-93.867-42.112-93.867-93.867c0-8.721,1.195-17.297,3.558-25.6H102.402v212.173l101.658,84.727l23.066-15.113
		C235.897,344.315,245.949,341.439,256.002,341.439z"/>
</g>
<g>
</g>
<g>
</g>
<g>
</g>
<g>
</g>
<g>
</g>
<g>
</g>
<g>
</g>
<g>
</g>
<g>
</g>
<g>
</g>
<g>
</g>
<g>
</g>
<g>
</g>
<g>
</g>
<g>
</g>
</svg>
