<?xml version="1.0" encoding="iso-8859-1"?>
<!-- Generator: Adobe Illustrator 19.0.0, SVG Export Plug-In . SVG Version: 6.00 Build 0)  -->
<svg version="1.1" id="Capa_1" xmlns="http://www.w3.org/2000/svg" xmlns:xlink="http://www.w3.org/1999/xlink" x="0px" y="0px"
	 viewBox="0 0 512 512" style="enable-background:new 0 0 512 512;" xml:space="preserve">
<g>
	<polygon style="fill:#E6646E;" points="139.947,338.784 79.654,462.309 135.323,457.9 166.095,504.501 224.35,385.151 	"/>
	<polygon style="fill:#E6646E;" points="372.401,338.614 288.302,385.605 346.335,504.501 377.127,457.941 432.776,462.309 	"/>
</g>
<g>
	<path style="fill:#DC4655;" d="M372.401,338.614l-84.1,46.991l13.125,26.89c6.831-2.79,13.068-7.009,18.158-12.518
		c0.523-0.567,1.263-0.89,2.031-0.89c0.18,0,0.363,0.018,0.543,0.054c3.273,0.652,6.622,0.983,9.951,0.983
		c19.781,0,37.911-11.614,46.189-29.589c0.399-0.868,1.239-1.478,2.188-1.59c2.099-0.248,4.1-0.761,6.109-1.25L372.401,338.614z"/>
	<path style="fill:#DC4655;" d="M125.796,367.775c1.886,0.443,3.753,0.937,5.717,1.169c0.95,0.113,1.79,0.722,2.19,1.592
		c8.276,17.973,26.407,29.587,46.188,29.587c3.33,0,6.679-0.331,9.953-0.984c0.178-0.035,0.36-0.053,0.54-0.053
		c0.768,0,1.51,0.324,2.031,0.889c5.179,5.607,11.55,9.871,18.523,12.657l13.413-27.482l-84.404-46.367L125.796,367.775z"/>
</g>
<path style="fill:#FFD164;" d="M269.111,10.951L269.111,10.951c10.821-6.066,24.392-3.917,32.808,5.197l0,0
	c6.336,6.859,15.782,9.928,24.939,8.104l0,0c12.166-2.425,24.408,3.812,29.598,15.08l0,0c3.906,8.481,11.941,14.319,21.214,15.413
	l0,0c12.32,1.453,22.035,11.168,23.489,23.489l0,0c1.094,9.273,6.933,17.309,15.413,21.214l0,0
	c11.268,5.19,17.505,17.431,15.08,29.598l0,0c-1.825,9.157,1.244,18.604,8.104,24.939l0,0c9.114,8.418,11.262,21.987,5.197,32.808
	l0,0c-4.566,8.145-4.566,18.078,0,26.223l0,0c6.066,10.821,3.917,24.392-5.197,32.808l0,0c-6.859,6.336-9.928,15.782-8.104,24.939
	l0,0c2.425,12.166-3.813,24.408-15.08,29.598l0,0c-8.481,3.906-14.319,11.941-15.413,21.214l0,0
	c-1.453,12.32-11.168,22.035-23.489,23.489l0,0c-9.273,1.094-17.309,6.933-21.214,15.413l0,0
	c-5.19,11.268-17.431,17.505-29.598,15.08l0,0c-9.157-1.825-18.604,1.244-24.939,8.104l0,0c-8.418,9.114-21.987,11.262-32.808,5.197
	l0,0c-8.145-4.566-18.078-4.566-26.223,0l0,0c-10.821,6.066-24.392,3.917-32.808-5.197l0,0c-6.336-6.859-15.782-9.928-24.939-8.104
	l0,0c-12.166,2.425-24.408-3.813-29.598-15.08l0,0c-3.906-8.481-11.941-14.319-21.214-15.413l0,0
	c-12.32-1.453-22.035-11.168-23.489-23.489l0,0c-1.094-9.273-6.933-17.309-15.413-21.214l0,0
	c-11.268-5.19-17.505-17.431-15.08-29.598l0,0c1.825-9.157-1.244-18.604-8.104-24.939l0,0c-9.114-8.418-11.262-21.987-5.197-32.808
	l0,0c4.566-8.145,4.566-18.078,0-26.223l0,0c-6.066-10.821-3.917-24.392,5.197-32.808l0,0c6.859-6.336,9.928-15.782,8.104-24.939
	l0,0c-2.425-12.166,3.812-24.408,15.08-29.598l0,0c8.481-3.906,14.319-11.941,15.413-21.214l0,0
	c1.453-12.32,11.168-22.035,23.489-23.489l0,0c9.273-1.094,17.309-6.933,21.214-15.413l0,0c5.19-11.268,17.431-17.505,29.598-15.08
	l0,0c9.157,1.825,18.604-1.244,24.939-8.104l0,0c8.418-9.114,21.987-11.262,32.808-5.197l0,0
	C251.033,15.516,260.967,15.516,269.111,10.951z"/>
<path style="fill:#FFC350;" d="M403.625,280.819c15.575-28.345,23.232-61.654,19.96-96.96
	c-7.38-79.641-71.899-144.161-151.54-151.54c-35.307-3.272-68.616,4.385-96.96,19.96c-4.528,2.488-9.718-2.072-7.648-6.806
	c3.273-7.483,7.021-14.708,11.239-21.622c-9.401,0.432-18.077,5.728-22.546,14.285c-4.474,8.567-12.287,15.456-21.882,16.618
	c-12.281,1.486-21.957,11.185-23.408,23.478c-1.111,9.415-6.802,17.25-15.412,21.215c-11.268,5.189-17.506,17.43-15.081,29.596
	c1.853,9.298-1.14,18.508-8.104,24.941c-9.113,8.418-11.261,21.987-5.196,32.807c4.636,8.27,4.636,17.954,0,26.224
	c-6.066,10.821-3.917,24.39,5.196,32.807c6.964,6.433,9.956,15.643,8.104,24.941c-2.425,12.165,3.812,24.406,15.078,29.595
	c8.612,3.966,14.304,11.801,15.415,21.216c1.454,12.319,11.168,22.034,23.488,23.488c9.415,1.111,17.25,6.803,21.215,15.413
	c5.189,11.267,17.43,17.505,29.596,15.081c9.298-1.853,18.508,1.14,24.941,8.104c8.418,9.113,21.987,11.261,32.807,5.196
	c8.27-4.636,17.954-4.636,26.224,0c10.821,6.066,24.391,3.917,32.807-5.196c6.433-6.964,15.643-9.956,24.941-8.104
	c12.166,2.425,24.408-3.814,29.596-15.082c3.965-8.611,11.8-14.301,21.215-15.411c12.292-1.45,21.992-11.125,23.478-23.408
	c1.161-9.596,8.053-17.408,16.62-21.883c8.556-4.469,13.851-13.144,14.283-22.545c-6.914,4.219-14.139,7.967-21.622,11.239
	C405.697,290.536,401.137,285.347,403.625,280.819z"/>
<circle style="fill:#FFEDB1;" cx="255.997" cy="199.9" r="152.302"/>
<path style="fill:#FFE17D;" d="M298.699,274.067c-58.215-12.254-104.609-58.647-116.862-116.862
	c-4.119-19.567-4.332-38.559-1.381-56.486c0.991-6.019-6.125-9.892-10.84-6.024c-34.656,28.441-55.083,73.544-48.73,123.163
	c7.753,60.54,56.619,109.407,117.16,117.16c49.619,6.354,94.723-14.072,123.163-48.73c3.87-4.716-0.005-11.831-6.024-10.84
	C337.258,278.399,318.266,278.186,298.699,274.067z"/>
<path style="fill:#FFFFFF;" d="M368.22,167.841c0-8.855-7.179-16.031-16.031-16.031h-64.126c0,0,12.015-18.024,20.443-43.669
	c2.242-6.821-1.6-14.175-8.411-16.446l-0.461-0.154c-6.362-2.121-13.225,0.914-16.116,6.964
	c-7.238,15.15-23.51,42.083-51.565,53.304h-10.238c-2.777-4.772-7.89-8.016-13.808-8.016h-32.063
	c-8.854,0-16.031,7.178-16.031,16.031v112.22c0,8.854,7.179,16.031,16.031,16.031h32.063c5.919,0,11.031-3.244,13.808-8.016h106.428
	c8.854,0,16.031-7.178,16.031-16.031c0-8.855-7.178-16.031-16.031-16.031h8.016c8.854,0,16.031-7.179,16.031-16.031
	c0-8.855-7.179-16.031-16.031-16.031h8.016c8.854,0,16.031-7.179,16.031-16.031c0-8.855-7.178-16.031-16.031-16.031h8.016
	C361.041,183.872,368.22,176.694,368.22,167.841z"/>
<g>
	<path style="fill:#FFF6D8;" d="M320.126,231.966c-4.427,0-8.016,3.589-8.016,8.016c0,4.427,3.589,8.016,8.016,8.016H335.3
		c7.986,0,15.387-5.458,16.669-13.34c0.149-0.916,0.139-1.803,0.138-2.691L320.126,231.966L320.126,231.966z"/>
	<path style="fill:#FFF6D8;" d="M328.141,199.903c-4.427,0-8.016,3.589-8.016,8.016s3.589,8.016,8.016,8.016h15.174
		c7.986,0,15.387-5.458,16.669-13.34c0.149-0.916,0.139-1.803,0.138-2.691L328.141,199.903L328.141,199.903z"/>
	<path style="fill:#FFF6D8;" d="M328.141,175.856c0,4.427,3.589,8.016,8.016,8.016h16.031c8.848,0,15.94-7.187,15.95-16.031h-31.981
		C331.73,167.841,328.141,171.429,328.141,175.856z"/>
	<path style="fill:#FFF6D8;" d="M296.079,264.029c-26.562,0-48.095-21.533-48.095-48.095v-8.016c0-8.854-7.178-16.031-16.031-16.031
		h-8.016v88.173H327.31c8.849,0,16.979-6.7,16.863-15.975c-0.021-0.021-16.091-0.035-16.112-0.056L296.079,264.029z"/>
	<path style="fill:#FFF6D8;" d="M183.858,239.982v-56.11c0-8.854-7.178-16.031-16.031-16.031h-8.016v104.205
		c0,8.854,7.178,16.031,16.031,16.031h32.063c8.854,0,16.031-7.178,16.031-16.031l0,0v-8.016h-16.031
		C194.625,264.029,183.858,253.263,183.858,239.982z"/>
</g>
<path d="M451.494,190.459c7.794-13.905,5.06-31.169-6.65-41.985c-4.906-4.532-7.143-11.415-5.837-17.964
	c3.116-15.632-4.82-31.207-19.298-37.875c-6.066-2.793-10.32-8.649-11.102-15.281c-1.868-15.83-14.228-28.191-30.058-30.057
	c-6.632-0.782-12.487-5.037-15.281-11.103c-6.668-14.478-22.245-22.412-37.874-19.298c-6.551,1.306-13.433-0.932-17.964-5.837
	c-10.815-11.709-28.082-14.442-41.985-6.65c-5.826,3.265-13.063,3.266-18.888,0c-13.905-7.792-31.168-5.059-41.985,6.65
	c-4.531,4.905-11.414,7.146-17.964,5.837c-15.633-3.113-31.206,4.82-37.875,19.298c-2.793,6.066-8.649,10.32-15.28,11.102
	c-15.83,1.867-28.191,14.227-30.058,30.058c-0.782,6.632-5.037,12.487-11.102,15.28c-14.478,6.668-22.415,22.243-19.298,37.875
	c1.306,6.55-0.931,13.433-5.837,17.964c-11.709,10.815-14.444,28.081-6.65,41.985c3.266,5.826,3.266,13.062,0,18.888
	c-7.794,13.905-5.06,31.169,6.65,41.985c4.906,4.532,7.143,11.414,5.837,17.963c-3.116,15.632,4.82,31.207,19.298,37.875
	c6.066,2.794,10.32,8.65,11.102,15.282c1.553,13.163,10.365,23.922,22.392,28.249L72.914,459.019
	c-1.165,2.385-0.981,5.208,0.481,7.423c1.462,2.215,3.98,3.509,6.637,3.357l50.735-2.566l29.189,41.578
	c1.411,2.009,3.707,3.19,6.137,3.19c0.197,0,0.395-0.008,0.593-0.023c2.646-0.209,4.984-1.802,6.148-4.187l52.827-108.23
	c7.026,0.847,14.334-0.484,20.894-4.162c5.825-3.265,13.061-3.266,18.888,0c5.296,2.968,11.077,4.41,16.806,4.409
	c1.504,0,3.002-0.11,4.488-0.307l52.857,108.29c1.164,2.385,3.502,3.978,6.148,4.187c0.198,0.016,0.396,0.023,0.593,0.023
	c2.43,0,4.726-1.181,6.137-3.19l29.19-41.578l50.735,2.566c2.642,0.138,5.175-1.143,6.637-3.357
	c1.463-2.215,1.646-5.038,0.481-7.423L386.58,350.567c11.839-4.412,20.489-15.085,22.026-28.116
	c0.782-6.632,5.037-12.487,11.102-15.281c14.478-6.668,22.415-22.243,19.298-37.875c-1.306-6.55,0.931-13.432,5.837-17.964
	c11.709-10.815,14.444-28.081,6.65-41.985C448.228,203.523,448.228,196.285,451.494,190.459z M164.93,489.789l-24.267-34.565
	c-1.481-2.109-3.935-3.319-6.517-3.181l-42.178,2.134l48.516-99.397c3.571,1.971,6.505,5.049,8.248,8.833
	c3.563,7.738,9.672,13.602,16.972,16.915l-16.037,32.855c-1.817,3.722-0.272,8.212,3.45,10.028c1.059,0.517,2.18,0.762,3.284,0.762
	c2.776,0,5.445-1.548,6.746-4.212l17.766-36.399c1.887-0.06,3.79-0.272,5.694-0.651c6.551-1.308,13.433,0.931,17.964,5.837
	c2.077,2.249,4.394,4.164,6.878,5.739L164.93,489.789z M420.461,454.177l-42.179-2.133c-2.578-0.144-5.036,1.071-6.517,3.181
	l-24.267,34.565l-46.623-95.518c2.36-1.535,4.567-3.374,6.553-5.524c4.531-4.906,11.414-7.142,17.964-5.837
	c2.051,0.409,4.101,0.622,6.13,0.661l17.762,36.39c1.3,2.663,3.968,4.211,6.745,4.211c1.104,0,2.226-0.245,3.285-0.762
	c3.722-1.817,5.267-6.307,3.45-10.029l-16.116-33.018c7.144-3.34,13.114-9.14,16.621-16.752c1.798-3.904,4.867-7.05,8.592-9.01
	L420.461,454.177z M438.411,216.681c4.388,7.827,2.848,17.545-3.743,23.633c-8.716,8.05-12.688,20.279-10.369,31.914
	c1.754,8.8-2.713,17.566-10.862,21.319c-10.776,4.963-18.334,15.365-19.724,27.148c-1.051,8.911-8.009,15.868-16.919,16.919
	c-11.782,1.39-22.185,8.948-27.148,19.724c-3.753,8.15-12.52,12.619-21.32,10.862c-11.633-2.317-23.865,1.654-31.914,10.369
	c-6.088,6.592-15.806,8.131-23.633,3.744c-5.176-2.901-10.976-4.352-16.778-4.352c-5.801,0-11.604,1.451-16.778,4.351
	c-7.827,4.387-17.545,2.848-23.633-3.743c-8.05-8.715-20.28-12.688-31.914-10.369c-8.799,1.755-17.566-2.713-21.319-10.862
	c-4.963-10.776-15.365-18.334-27.148-19.724c-8.911-1.051-15.868-8.009-16.919-16.919c-1.39-11.782-8.948-22.185-19.724-27.149
	c-8.15-3.753-12.616-12.519-10.862-21.319c2.319-11.635-1.654-23.864-10.369-31.914c-6.591-6.088-8.131-15.806-3.744-23.633
	c5.802-10.349,5.802-23.207,0-33.557c-4.388-7.827-2.848-17.544,3.743-23.633c8.716-8.05,12.688-20.279,10.369-31.914
	c-1.754-8.799,2.713-17.566,10.862-21.319c10.776-4.963,18.334-15.365,19.724-27.148c1.051-8.912,8.009-15.868,16.919-16.919
	c11.782-1.39,22.186-8.948,27.148-19.724c3.753-8.15,12.518-12.616,21.32-10.862c11.64,2.32,23.864-1.655,31.914-10.369
	c6.088-6.591,15.807-8.132,23.633-3.743c10.349,5.801,23.207,5.801,33.556,0l0,0c7.827-4.389,17.544-2.849,23.633,3.743
	c8.05,8.715,20.277,12.689,31.914,10.369c8.803-1.756,17.565,2.714,21.319,10.862c4.963,10.776,15.365,18.334,27.148,19.724
	c8.911,1.051,15.868,8.009,16.919,16.919c1.39,11.782,8.948,22.186,19.724,27.148c8.15,3.753,12.616,12.52,10.862,21.319
	c-2.319,11.635,1.654,23.864,10.369,31.914c6.591,6.088,8.131,15.806,3.744,23.633C432.609,193.474,432.609,206.333,438.411,216.681
	z"/>
<path d="M352.188,144.31H301.12c4.309-8.058,9.908-19.822,14.511-33.827c3.515-10.691-2.391-22.312-13.161-25.902l-0.462-0.154
	c-9.869-3.293-20.728,1.371-25.257,10.845c-6.622,13.861-21.364,38.439-46.283,49.039h-4.893
	c-4.316-4.909-10.634-8.016-17.669-8.016h-32.062c-12.975,0-23.531,10.556-23.531,23.531v112.22
	c0,12.975,10.556,23.531,23.531,23.531h32.062c7.035,0,13.353-3.107,17.669-8.016h102.567c12.975,0,23.531-10.556,23.531-23.531
	c0-4.368-1.196-8.462-3.278-11.97c6.768-4.137,11.293-11.596,11.293-20.092c0-4.368-1.196-8.462-3.278-11.97
	c6.768-4.137,11.293-11.596,11.293-20.092c0-4.368-1.196-8.462-3.278-11.97c6.768-4.137,11.293-11.596,11.293-20.092
	C375.72,154.865,365.163,144.31,352.188,144.31z M352.188,176.372h-24.047c-4.142,0-7.5,3.358-7.5,7.5s3.358,7.5,7.5,7.5h16.031
	c4.705,0,8.532,3.828,8.532,8.532s-3.828,8.532-8.532,8.532h-24.047c-4.142,0-7.5,3.358-7.5,7.5c0,4.142,3.358,7.5,7.5,7.5h16.031
	c4.705,0,8.532,3.828,8.532,8.532c0,4.704-3.828,8.532-8.532,8.532H312.11c-4.142,0-7.5,3.358-7.5,7.5s3.358,7.5,7.5,7.5h16.031
	c4.705,0,8.532,3.828,8.532,8.532s-3.828,8.532-8.532,8.532h-96.704v-72.657c0-4.142-3.358-7.5-7.5-7.5c-4.142,0-7.5,3.358-7.5,7.5
	v72.141c0,4.705-3.828,8.532-8.532,8.532h-32.062c-4.705,0-8.532-3.828-8.532-8.532V159.825c0-4.705,3.828-8.532,8.532-8.532h32.062
	c4.705,0,8.532,3.828,8.532,8.532v8.015c0,4.142,3.358,7.5,7.5,7.5c4.142,0,7.5-3.358,7.5-7.5v-8.531h0.516
	c0.954,0,1.899-0.182,2.786-0.537c30.439-12.176,47.868-40.961,55.546-57.035c1.271-2.661,4.274-3.982,6.977-3.083l0.463,0.155
	c2.96,0.986,4.601,4.122,3.658,6.991c-7.978,24.274-19.447,41.682-19.559,41.85c-1.535,2.301-1.677,5.26-0.373,7.699
	c1.305,2.438,3.847,3.961,6.613,3.961h64.126c4.705,0,8.532,3.828,8.532,8.532C360.721,172.544,356.893,176.372,352.188,176.372z"/>
<circle cx="192" cy="256.017" r="7.5"/>
<g>
</g>
<g>
</g>
<g>
</g>
<g>
</g>
<g>
</g>
<g>
</g>
<g>
</g>
<g>
</g>
<g>
</g>
<g>
</g>
<g>
</g>
<g>
</g>
<g>
</g>
<g>
</g>
<g>
</g>
</svg>
