<svg id="Layer_35" enable-background="new 0 0 64 64" height="512" viewBox="0 0 64 64" width="512" xmlns="http://www.w3.org/2000/svg"><path d="m16 62h-10c0-6.05 3.66-11.5 9.26-13.79l9.04-3.7 1.7 8.49 3.84-3.2.16.2-2 12z" fill="#75b1f2"/><path d="m48 62h-12l-2-12 .16-.2 3.84 3.2 1.7-8.49 9.04 3.7c2.8 1.15 5.12 3.08 6.73 5.49 1.61 2.4 2.53 5.28 2.53 8.3z" fill="#75b1f2"/><path d="m39.7 44.51-1.7 8.49-3.84-3.2-2.16-1.8 5.36-4.69c.33.3.71.54 1.13.71z" fill="#5d9cec"/><path d="m32 48-2.16 1.8-3.84 3.2-1.7-8.49 1.21-.49c.42-.17.8-.41 1.13-.71z" fill="#5d9cec"/><path d="m34 50 2 12h-8l2-12-.16-.2 2.16-1.8 2.16 1.8z" fill="#fcd770"/><path d="m48 14.12v11.88c0-1.1-.45-2.1-1.17-2.83-.73-.72-1.73-1.17-2.83-1.17v-1.74c0-1.4-.74-2.7-1.94-3.43l-3.06-1.83-3 3-4-3-4 3-3-3-3.06 1.83c-1.2.73-1.94 2.03-1.94 3.43v1.74c-2.21 0-4 1.79-4 4v-8.93c0-8.32 6.75-15.07 15.07-15.07 2.2 0 4.35.48 6.3 1.38s3.71 2.21 5.14 3.88l1.49 1.74c1.18.3 2.18.97 2.88 1.87.71.91 1.12 2.04 1.12 3.25z" fill="#656d78"/><g fill="#f0d0b4"><path d="m37.36 43.31-5.36 4.69-5.36-4.69c.85-.74 1.36-1.83 1.36-3v-1.24c1.23.8 2.57 1.45 4 1.93 1.43-.48 2.77-1.13 4-1.93v1.24c0 1.17.51 2.26 1.36 3z"/><path d="m46.83 23.17c.72.73 1.17 1.73 1.17 2.83 0 2.21-1.79 4-4 4h-.94c.61-1.79.94-3.69.94-5.65v-2.35c1.1 0 2.1.45 2.83 1.17z"/><path d="m44 22v2.35c0 1.96-.33 3.86-.94 5.65-1.26 3.72-3.74 6.92-7.06 9.07-1.23.8-2.57 1.45-4 1.93-1.43-.48-2.77-1.13-4-1.93-1.84-1.19-3.42-2.71-4.69-4.46-1.01-1.4-1.81-2.96-2.37-4.61-.61-1.79-.94-3.69-.94-5.65v-2.35-1.74c0-1.4.74-2.7 1.94-3.43l3.06-1.83 3 3 4-3 4 3 3-3 3.06 1.83c1.2.73 1.94 2.03 1.94 3.43z"/><path d="m20.94 30h-.94c-1.1 0-2.1-.45-2.83-1.17-.72-.73-1.17-1.73-1.17-2.83 0-2.21 1.79-4 4-4v2.35c0 1.96.33 3.86.94 5.65z"/></g><circle cx="38" cy="23" r="1"/><circle cx="26" cy="23" r="1"/><path d="m36 32h-2c0 1.103-.897 2-2 2s-2-.897-2-2h-2c0 2.206 1.794 4 4 4s4-1.794 4-4z"/><path d="m23.064 11.584-1.624-1.168c-.489.68-.913 1.409-1.261 2.167l1.817.834c.295-.641.654-1.258 1.068-1.833z"/><path d="m32 7v-2c-3.17 0-6.224 1.154-8.599 3.25l1.323 1.499c2.009-1.772 4.593-2.749 7.276-2.749z"/><path d="m49.123 47.289-10.259-4.198c-1.133-.463-1.864-1.553-1.864-2.777v-.718c3.077-2.126 5.427-5.126 6.759-8.597h.241c2.757 0 5-2.243 5-5v-11.876c0-2.776-1.809-5.2-4.438-6.004l-1.292-1.508c-3.057-3.566-7.504-5.611-12.201-5.611-8.861 0-16.069 7.208-16.069 16.069v8.931c0 2.757 2.243 5 5 5h.241c1.332 3.471 3.682 6.47 6.759 8.597v.718c0 1.224-.731 2.313-1.864 2.776l-10.259 4.197c-6 2.455-9.877 8.23-9.877 14.712v1h54v-1c0-6.482-3.877-12.257-9.877-14.711zm-10.568-2.163-1.206 6.03-3.81-3.174 3.873-3.389c.22.132.451.25.694.35zm-6.555 4.176 1.032.86-.018.003 1.806 10.835h-5.64l1.806-10.835-.018-.003zm12.414-20.344c.379-1.482.586-3.025.586-4.607v-1.167c1.161.414 2 1.514 2 2.816 0 1.512-1.129 2.754-2.586 2.958zm-13.345-25.958c4.112 0 8.005 1.791 10.682 4.913l1.697 1.979.309.078c1.91.478 3.243 2.185 3.243 4.153v7.903c-.584-.442-1.257-.773-2-.924v-.836c0-1.746-.93-3.389-2.427-4.287l-3.728-2.237-2.939 2.939-3.906-2.931-3.906 2.93-2.939-2.939-3.728 2.237c-1.497.897-2.427 2.541-2.427 4.287v.836c-.743.152-1.416.482-2 .924v-4.956c0-7.757 6.312-14.069 14.069-14.069zm-14.069 23c0-1.302.839-2.402 2-2.816v1.167c0 1.582.207 3.125.586 4.607-1.457-.204-2.586-1.446-2.586-2.958zm4-1.649v-4.086c0-1.048.558-2.033 1.457-2.572l2.389-1.433 3.061 3.061 4.093-3.071 4.094 3.07 3.061-3.061 2.389 1.433c.898.539 1.456 1.525 1.456 2.573v4.086c0 7.023-4.406 13.247-11 15.591-6.594-2.344-11-8.567-11-15.591zm10.684 17.598.316.105.316-.105c.947-.316 1.855-.702 2.719-1.152.086.892.399 1.724.904 2.428l-3.939 3.446-3.94-3.448c.505-.704.818-1.536.904-2.428.864.451 1.773.838 2.72 1.154zm-5.097 2.643 3.873 3.389-3.81 3.174-1.206-6.03.448-.183c.244-.099.475-.217.695-.35zm-10.953 4.547 7.926-3.242 1.789 8.947 3.286-2.739-1.482 8.895h-10.153v-6h-2v6h-7.965c.373-5.255 3.665-9.842 8.599-11.861zm33.366 11.861v-6h-2v6h-10.153l-1.482-8.894 3.286 2.739 1.789-8.947 7.926 3.243c4.934 2.018 8.226 6.605 8.599 11.86h-7.965z"/><path d="m39 57h4v2h-4z"/><path d="m21 57h4v2h-4z"/></svg>