<svg width="32" height="32" viewBox="0 0 32 32" fill="none" xmlns="http://www.w3.org/2000/svg">
<g id="search_24px">
<path id="icon/action/search_24px" fill-rule="evenodd" clip-rule="evenodd" d="M18.9667 18.2563H19.7571L24.75 23.2591L23.2591 24.75L18.2563 19.7571V18.9667L17.9861 18.6865C16.8455 19.6671 15.3646 20.2574 13.7537 20.2574C10.1617 20.2574 7.25 17.3458 7.25 13.7537C7.25 10.1617 10.1617 7.25 13.7537 7.25C17.3458 7.25 20.2574 10.1617 20.2574 13.7537C20.2574 15.3646 19.6671 16.8455 18.6865 17.9861L18.9667 18.2563ZM9.25113 13.7537C9.25113 16.2451 11.2623 18.2562 13.7537 18.2562C16.2451 18.2562 18.2563 16.2451 18.2563 13.7537C18.2563 11.2622 16.2451 9.2511 13.7537 9.2511C11.2623 9.2511 9.25113 11.2622 9.25113 13.7537Z" fill="black"/>
</g>
</svg>
