<svg width="1190" height="17" viewBox="0 0 1190 17" fill="none" xmlns="http://www.w3.org/2000/svg">
<path d="M0 4.86374e-05V15.7C74.7 15.2 87.7 8.00005 188 9.00005C187.4 9.00005 186.8 9.00005 186.3 8.80005C277.1 8.10005 377 7.40005 452.8 8.50005C445.8 7.80005 455.6 7.60005 447.3 7.40005C435 7.90005 399.1 6.80005 393.2 6.80005C423.6 6.60005 485.3 7.60005 518.1 7.70005C507.8 8.20005 517.4 9.20005 529 9.40005C532 9.10005 560.5 9.60005 572.5 9.10005C582.8 10.1 547.9 10 567.1 10.5C572.9 9.60005 583.6 10.5 599.7 9.90005C608.7 10.7 622.7 11.1 632.3 11.9C636.4 11.1 674.6 13 665.6 12.2C695.8 14.6 757.7 14 762.8 15C764.4 14.9 805.6 14.3 822.7 13.6C826.3 14 834.3 14.1 844.5 14.2C835.9 13.4 858.6 12.9 860.8 13.6C834.2 13.7 869.1 13.9 866.2 14.4C856.5 14.7 834.6 14.4 828.1 15C868.5 15.9 941.9 15.1 980.4 16.1C966.5 16.1 961.4 16.6 953.2 17C1005.3 17 1036.3 15.8001 1078.3 16.7001C1085.4 16.4001 1124 15.2 1110.9 16.4C1151.1 16.2 1102.4 14.9 1143.5 15C1145.6 15.5 1135.4 15.7 1143.5 15.9C1149.2 14.6 1178.1 15.4 1176.1 15.9C1204.4 13.7 1285.1 14.4 1301.2 12.8C1308.5 13.6 1325.4 12.6 1333.8 12.5C1334.1 12.9 1331.3 13.1 1328.4 13.4C1354.8 13.3 1376.6 11.4 1393.7 11.7C1397.1 13.2 1350.8 13.6 1361.1 14.5C1385.5 13.2 1408.2 11.9 1437.3 10.8C1442.1 11.6 1414.1 12.2 1426.4 12.5C1432.8 11.9 1436.6 11.5 1442 10.8V4.86374e-05H0ZM316.8 7.40005C334.5 6.50005 374.9 6.50005 387.5 6.80005C373 7.90005 338.9 6.80005 316.8 7.40005ZM188 9.00005C190 9.10005 193.5 9.10005 196.3 9.10005L188 9.00005ZM1507.2 -9.09995C1507.5 -9.09995 1507.8 -9.09995 1508.1 -9.19995L1507.2 -9.09995Z" fill="white"/>
</svg>
